<?xml version="1.0" encoding="UTF-8"?>
<svg id="Calque_1" data-name="Calque 1" xmlns="http://www.w3.org/2000/svg" viewBox="0 0 33 33">
  <defs>
    <style>
      .cls-1 {
        fill: #787878;
      }
    </style>
  </defs>
  <path class="cls-1" d="m30.74.05h-3.99c-1.25,0-2.27,1.02-2.27,2.27v1.61h-15.93v-1.61C8.55,1.07,7.53.05,6.28.05h-3.99C1.03.05.01,1.07.01,2.32v3.99c0,1.25,1.02,2.27,2.27,2.27h1.61v15.93h-1.61C1.03,24.51.01,25.53.01,26.79v3.99c0,1.25,1.02,2.27,2.27,2.27h3.99c1.25,0,2.27-1.02,2.27-2.27v-1.61h10.79c.21,0,.38-.17.38-.38s-.17-.38-.38-.38h-10.79v-1.61c0-1.25-1.02-2.27-2.27-2.27h-1.61v-15.93h1.61c1.25,0,2.27-1.02,2.27-2.27v-1.61h15.93v1.61c0,1.25,1.02,2.27,2.27,2.27h1.61v10.79c0,.21.17.38.38.38s.38-.17.38-.38v-10.79h1.61c1.25,0,2.27-1.02,2.27-2.27v-3.99c0-1.25-1.02-2.27-2.27-2.27ZM7.78,26.79v3.99c0,.83-.68,1.51-1.51,1.51h-3.99c-.83,0-1.51-.68-1.51-1.51v-3.99c0-.83.68-1.51,1.51-1.51h3.99c.83,0,1.51.68,1.51,1.51Zm0-20.47c0,.83-.68,1.51-1.51,1.51h-3.99c-.83,0-1.51-.68-1.51-1.51v-3.99c0-.83.68-1.51,1.51-1.51h3.99c.83,0,1.51.68,1.51,1.51v3.99Zm24.46,0c0,.83-.68,1.51-1.51,1.51h-3.99c-.83,0-1.51-.68-1.51-1.51v-3.99c0-.83.68-1.51,1.51-1.51h3.99c.83,0,1.51.68,1.51,1.51v3.99Z"/>
  <path class="cls-1" d="m30.74,24.51h-3.99c-1.25,0-2.27,1.02-2.27,2.27v3.99c0,1.25,1.02,2.27,2.27,2.27h3.99c1.25,0,2.27-1.02,2.27-2.27v-3.99c0-1.25-1.02-2.27-2.27-2.27Zm1.51,6.26c0,.83-.68,1.51-1.51,1.51h-3.99c-.83,0-1.51-.68-1.51-1.51v-3.99c0-.83.68-1.51,1.51-1.51h3.99c.83,0,1.51.68,1.51,1.51v3.99Z"/>
</svg>