<?xml version="1.0" encoding="UTF-8"?>
<svg id="Calque_1" data-name="Calque 1" xmlns="http://www.w3.org/2000/svg" viewBox="0 0 23 19">
  <defs>
    <style>
      .cls-1 {
        fill: #1e1e1e;
      }
    </style>
  </defs>
  <path class="cls-1" d="m22.95.41c-.08-.24-.18-.31-.33-.37-.34-.13-.91.06-.91.06C21.71.11,1.56,7.36.41,8.16c-.25.17-.33.27-.37.39-.2.57.42.82.42.82l5.19,1.69s.19.03.26-.02c1.18-.75,11.89-7.52,12.51-7.75.1-.03.17,0,.15.07-.25.87-9.55,9.15-9.55,9.15,0,0-.04.04-.06.1h-.01s-.48,5.15-.48,5.15c0,0-.2,1.58,1.38,0,1.11-1.12,2.19-2.05,2.73-2.5,1.79,1.23,3.71,2.6,4.54,3.32.42.36.77.42,1.05.41.79-.03,1.01-.9,1.01-.9,0,0,3.67-14.8,3.8-16.78.01-.19.03-.32.03-.45,0-.19-.02-.37-.05-.46Z"/>
</svg>