<?xml version="1.0" encoding="UTF-8"?>
<svg id="Calque_1" data-name="Calque 1" xmlns="http://www.w3.org/2000/svg" viewBox="0 0 48 44">
  <defs>
    <style>
      .cls-1 {
        fill: #787878;
      }
    </style>
  </defs>
  <path class="cls-1" d="m48,8.43c0-.06-.01-.11-.05-.17,0,0,0,0,0,0-.03-.05-.07-.09-.12-.12,0,0,0,0-.01-.01L33.82.05c-.12-.07-.26-.07-.37,0l-14,8.07s0,0-.01.01c-.05.03-.09.07-.12.12,0,0,0,0,0,0-.03.05-.04.11-.05.17,0,0,0,.01,0,.02v5.29l-4.71-2.71c-.12-.07-.26-.07-.37,0L.19,19.09s0,0-.01.01c-.05.03-.09.07-.12.12,0,0,0,0,0,0-.03.05-.04.11-.04.17,0,0,0,.01,0,.02v16.14c0,.13.07.26.19.32l13.99,8.07s.01,0,.02,0c.05.03.11.04.17.04s.12-.02.17-.04c0,0,.01,0,.02,0l13.99-8.07c.12-.07.19-.19.19-.32v-5.29l4.71,2.72s.01,0,.02,0c.05.03.11.04.17.04s.12-.02.17-.04c0,0,.01,0,.02,0l13.99-8.07c.12-.07.19-.19.19-.32V8.44s0-.01,0-.02ZM33.63.8l13.25,7.64-13.25,7.64-13.25-7.64L33.63.8ZM14.37,11.77l4.89,2.82v9.64l-4.89,2.82L1.12,19.41l13.25-7.64Zm13.62,17.2l-7.73-4.46,7.73-4.46v8.91Zm-7.98-5.17v-8.77l7.61,4.39-7.61,4.39ZM.75,20.06l13.25,7.64v15.28L.75,35.34v-15.28Zm27.24,15.28l-13.25,7.64v-15.28l4.77-2.75,8.47,4.89v5.51Zm.74-15.94c0-.06-.01-.11-.05-.17,0,0,0,0,0,0-.03-.05-.07-.09-.12-.12,0,0,0,0-.01-.01l-8.54-4.92v-5.08l13.25,7.64v15.28l-4.52-2.61v-9.99s0-.01,0-.02Zm5.27,12.61v-15.28l13.25-7.64v15.28l-13.25,7.64Z"/>
</svg>