<?xml version="1.0" encoding="UTF-8"?>
<svg id="Calque_1" data-name="Calque 1" xmlns="http://www.w3.org/2000/svg" viewBox="0 0 27 25">
  <defs>
    <style>
      .cls-1 {
        fill: #1e1e1e;
        fill-rule: evenodd;
      }
    </style>
  </defs>
  <g id="WA_Logo" data-name="WA Logo">
    <path class="cls-1" d="m26.9,18.57c-.17-.28-.61-.44-1.27-.77-.66-.33-3.93-1.93-4.54-2.16-.61-.22-1.05-.33-1.49.33-.44.66-1.72,2.16-2.1,2.6-.39.44-.78.5-1.44.17-.66-.33-2.8-1.03-5.34-3.29-1.97-1.76-3.31-3.93-3.7-4.59-.39-.66-.04-1.02.29-1.35.3-.3.66-.77,1-1.16.33-.39.44-.66.66-1.11.22-.44.11-.83-.06-1.16-.17-.33-1.49-3.59-2.05-4.92C6.33-.13,5.78.04,5.37.02,4.98,0,4.54,0,4.1,0s-1.16.17-1.77.83C1.72,1.49,0,3.1,0,6.36s2.38,6.41,2.71,6.85c.33.44,4.68,7.13,11.35,10,1.58.68,2.82,1.09,3.79,1.4,1.59.5,3.04.43,4.18.26,1.28-.19,3.93-1.6,4.48-3.15.55-1.55.55-2.87.39-3.15Z"/>
  </g>
</svg>