<?xml version="1.0" encoding="UTF-8"?>
<svg id="Calque_1" data-name="Calque 1" xmlns="http://www.w3.org/2000/svg" viewBox="0 0 77 65">
  <defs>
    <style>
      .cls-1 {
        fill: #f5f5f5;
      }
    </style>
  </defs>
  <path class="cls-1" d="m43.14,39.39s-.03,0-.04,0c-.27-.01-.77-.16-1.03-1.04l-4.2-14.17c-.18-.6-.08-1.14.28-1.49.35-.35.9-.45,1.49-.28l14.17,4.21c.88.26,1.03.76,1.04,1.03.01.27-.1.78-.96,1.11l-5.77,2.21c-.58.22-1.3.93-1.53,1.51l-2.37,5.97c-.32.81-.8.95-1.08.95Zm-.22-1.2h0Zm-3.88-14.59s0,.09.04.22l4.09,13.8,2.23-5.61c.36-.9,1.35-1.88,2.26-2.23l5.37-2.06-13.77-4.09c-.13-.04-.2-.03-.23-.03Zm14.63,4.33h.01-.01Z"/>
  <path class="cls-1" d="m71.06,54.05h-21.95c-.35,0-.64-.29-.64-.64s.29-.64.64-.64h21.95c2.57,0,4.67-2.1,4.67-4.67V5.94c0-2.57-2.09-4.67-4.67-4.67H5.94C3.37,1.27,1.27,3.37,1.27,5.94v42.16c0,2.57,2.09,4.67,4.67,4.67h21.95c.35,0,.64.29.64.64s-.29.64-.64.64H5.94c-3.28,0-5.94-2.67-5.94-5.94V5.94C0,2.67,2.67,0,5.94,0h65.11c3.28,0,5.94,2.67,5.94,5.94v42.16c0,3.28-2.67,5.94-5.94,5.94Z"/>
  <path class="cls-1" d="m55.56,65H21.44c-.35,0-.64-.29-.64-.64s.29-.64.64-.64h34.11c.35,0,.64.29.64.64s-.29.64-.64.64Z"/>
  <path class="cls-1" d="m42.95,54.05h-8.91c-.35,0-.64-.29-.64-.64s.29-.64.64-.64h8.91c.35,0,.64.29.64.64s-.29.64-.64.64Z"/>
  <path class="cls-1" d="m31.56,22.97h-5.64c-.99,0-1.8-.8-1.8-1.8v-5.64c0-.99.81-1.8,1.8-1.8h5.64c.99,0,1.8.8,1.8,1.8v5.64c0,.99-.81,1.8-1.8,1.8Zm-5.64-7.96c-.29,0-.52.23-.52.52v5.64c0,.29.23.52.52.52h5.64c.29,0,.52-.23.52-.52v-5.64c0-.29-.23-.52-.52-.52h-5.64Z"/>
</svg>