<?xml version="1.0" encoding="UTF-8"?>
<svg id="Calque_1" data-name="Calque 1" xmlns="http://www.w3.org/2000/svg" viewBox="0 0 33 33">
  <defs>
    <style>
      .cls-1 {
        fill: #787878;
      }
    </style>
  </defs>
  <path class="cls-1" d="m11.19.8C11,.16,10.68.01,10.45,0c-.23-.03-.56.11-.81.72l-2.15,5.42c-.23.58-.93,1.27-1.51,1.5L.73,9.66C.11,9.89,0,10.22,0,10.45c0,.23.15.55.79.74l12.87,3.82c.15.05.3.07.44.07.28,0,.52-.09.7-.27.26-.26.33-.68.2-1.14L11.19.8Zm3.11,13.51c-.07.07-.23.07-.43.02L1,10.5h0c-.09-.03-.15-.05-.2-.07.04-.03.11-.06.19-.09l5.24-2.01c.77-.3,1.62-1.13,1.93-1.9L10.31.99c.04-.09.07-.16.1-.2.02.05.05.11.08.21l3.82,12.87c.06.2.05.36-.02.43Z"/>
  <path class="cls-1" d="m32.21,21.81l-12.87-3.82c-.46-.14-.88-.07-1.14.2-.26.26-.33.68-.2,1.14l3.82,12.87c.19.64.51.78.74.79,0,0,.02,0,.03,0,.23,0,.54-.13.78-.72l2.15-5.42c.23-.59.93-1.27,1.51-1.5l5.24-2.01c.62-.24.74-.57.73-.8,0-.23-.15-.55-.79-.74Zm-.2.86l-5.24,2.01c-.77.3-1.62,1.13-1.93,1.9l-2.15,5.42c-.04.09-.07.16-.1.2-.02-.05-.05-.11-.08-.21l-3.82-12.87c-.06-.19-.05-.36.02-.42.04-.04.1-.05.18-.05.07,0,.15.01.24.04l12.87,3.82h0c.09.03.15.05.2.07-.04.03-.11.06-.19.09Z"/>
  <path class="cls-1" d="m18.89,15.08c.14,0,.29-.02.44-.07l12.87-3.82c.64-.19.78-.51.79-.74.01-.23-.11-.56-.72-.81l-5.42-2.15c-.59-.23-1.27-.93-1.5-1.51l-2.01-5.24C23.11.11,22.77,0,22.55,0c-.23,0-.55.15-.74.79l-3.82,12.87c-.14.46-.07.88.2,1.14.18.18.42.27.7.27Zm-.2-1.2l3.82-12.87c.03-.09.05-.15.08-.2.03.04.06.11.09.19l2.01,5.24c.3.77,1.13,1.62,1.9,1.93l5.42,2.15c.09.04.16.07.2.1-.05.02-.11.05-.21.08l-12.87,3.82c-.2.06-.36.05-.43-.02-.07-.07-.07-.23-.02-.43Z"/>
  <path class="cls-1" d="m13.67,17.99L.79,21.81C.16,22,.01,22.32,0,22.55c-.01.23.11.56.72.81l5.42,2.15c.59.23,1.27.93,1.5,1.51l2.01,5.24c.23.6.54.73.77.73h.02c.23,0,.55-.15.74-.79l3.82-12.87c.14-.46.07-.88-.2-1.14-.26-.26-.68-.34-1.14-.2Zm.65,1.13l-3.82,12.87c-.03.09-.05.15-.08.2-.03-.04-.06-.11-.09-.19l-2.01-5.24c-.3-.77-1.13-1.62-1.9-1.93l-5.42-2.15c-.09-.04-.16-.07-.2-.1.05-.02.11-.05.21-.08l12.87-3.82c.2-.06.36-.05.43.02.07.07.07.23.02.42Z"/>
</svg>