<?xml version="1.0" encoding="UTF-8"?>
<svg id="Calque_1" data-name="Calque 1" xmlns="http://www.w3.org/2000/svg" viewBox="0 0 40 42">
  <defs>
    <style>
      .cls-1 {
        fill: #1e1e1e;
      }
    </style>
  </defs>
  <path class="cls-1" d="m39,21.02c-.55,0-1,.45-1,1,0,9.92-8.07,17.98-18,17.98S2,31.93,2,22.02,10.08,4.03,20,4.03c1.57,0,3.1.22,4.59.61l-1.54.66c-.51.22-.74.81-.52,1.31.16.38.53.6.92.6.13,0,.27-.03.39-.08l3.93-1.69s0,0,0,0h.02s.05-.05.08-.06c.08-.05.17-.09.23-.16.04-.04.06-.1.1-.14.04-.06.09-.1.11-.16,0,0,0-.02,0-.03,0,0,.01-.01.01-.02.02-.05.01-.1.02-.15.01-.07.03-.14.03-.22,0-.06-.02-.11-.03-.16-.02-.08-.03-.15-.06-.22,0-.01,0-.03-.01-.04l-1.79-3.53c-.25-.49-.85-.69-1.35-.44-.49.25-.69.85-.44,1.34l.68,1.34c-1.75-.49-3.55-.75-5.39-.75C8.97,2.03,0,11,0,22.02s8.97,19.98,20,19.98,20-8.96,20-19.98c0-.55-.45-1-1-1Z"/>
  <path class="cls-1" d="m27.35,18.35l-7.86,6.91-4.36-4.65c-.38-.4-1.01-.42-1.41-.05-.4.38-.42,1.01-.05,1.41l5.03,5.35c.2.21.46.32.73.32.23,0,.47-.08.66-.25l8.59-7.55c.42-.36.46-1,.09-1.41s-1-.46-1.41-.09Z"/>
</svg>